<?xml version="1.0" encoding="utf-8"?>
<!-- Generator: Adobe Illustrator 15.1.0, SVG Export Plug-In . SVG Version: 6.00 Build 0)  -->
<!DOCTYPE svg PUBLIC "-//W3C//DTD SVG 1.1//EN" "http://www.w3.org/Graphics/SVG/1.1/DTD/svg11.dtd">
<svg version="1.1" id="图层_1" xmlns="http://www.w3.org/2000/svg" xmlns:xlink="http://www.w3.org/1999/xlink" x="0px" y="0px"
	 width="256px" height="256px" viewBox="0 0 256 256" enable-background="new 0 0 256 256" xml:space="preserve">
<polygon fill="#3482C5" points="122.926,50.524 227.887,166.227 151.946,3.226 144.031,3.226 "/>
<path fill="#3482C5" d="M152.437,5.205c0,2.445-1.981,4.431-4.429,4.431c-2.446,0-4.428-1.986-4.428-4.431
	c0-2.45,1.981-4.434,4.428-4.434C150.455,0.771,152.437,2.755,152.437,5.205"/>
<polygon fill="#E85D21" points="122.926,50.524 122.926,166.411 227.887,166.227 40.863,254.793 33.044,246.498 "/>
<path fill="#E85D21" d="M44.719,249.072c0,3.398-2.754,6.157-6.15,6.157c-3.397,0-6.153-2.759-6.153-6.157
	c0-3.39,2.756-6.148,6.153-6.148C41.965,242.924,44.719,245.683,44.719,249.072"/>
<polygon fill="#F0852A" points="227.887,166.227 87.94,126.804 28.771,45.248 34.049,40.475 "/>
<path fill="#F0852A" d="M35.273,43.206c0,1.977-1.603,3.582-3.579,3.582c-1.977,0-3.582-1.605-3.582-3.582
	c0-1.976,1.605-3.579,3.582-3.579C33.67,39.627,35.273,41.23,35.273,43.206"/>
</svg>
